<mxfile host="app.diagrams.net" modified="2020-11-02T10:37:48.777Z" agent="5.0 (Windows NT 10.0; Win64; x64) AppleWebKit/537.36 (KHTML, like Gecko) Chrome/86.0.4240.111 Safari/537.36" etag="SvZ7_N3hZlZhs5hS9Fpa" version="13.8.8" type="github">
  <diagram id="csGil1xaL1SVen_ycMVT" name="Page-1">
    <mxGraphModel dx="2249" dy="-463" grid="1" gridSize="10" guides="1" tooltips="1" connect="1" arrows="1" fold="1" page="1" pageScale="1" pageWidth="827" pageHeight="1169" math="0" shadow="0">
      <root>
        <mxCell id="0" />
        <mxCell id="1" parent="0" />
        <mxCell id="NQqwgZCC8j3keOBlK-B6-5" value="" style="rounded=0;whiteSpace=wrap;html=1;dashed=1;fontSize=14;fillColor=#d0cee2;strokeColor=#56517e;" vertex="1" parent="1">
          <mxGeometry x="100" y="1520" width="970" height="110" as="geometry" />
        </mxCell>
        <mxCell id="NQqwgZCC8j3keOBlK-B6-6" value="" style="rounded=0;whiteSpace=wrap;html=1;dashed=1;fontSize=14;fillColor=#fad9d5;strokeColor=#ae4132;" vertex="1" parent="1">
          <mxGeometry x="100" y="1680" width="970" height="120" as="geometry" />
        </mxCell>
        <mxCell id="NQqwgZCC8j3keOBlK-B6-7" value="" style="rounded=0;whiteSpace=wrap;html=1;dashed=1;fontSize=14;fillColor=#bac8d3;strokeColor=#23445d;" vertex="1" parent="1">
          <mxGeometry x="90" y="1970" width="980" height="540" as="geometry" />
        </mxCell>
        <mxCell id="NQqwgZCC8j3keOBlK-B6-8" value="" style="rounded=0;whiteSpace=wrap;html=1;dashed=1;fontSize=14;fillColor=#f5f5f5;strokeColor=#666666;fontColor=#333333;" vertex="1" parent="1">
          <mxGeometry x="140" y="2160" width="820" height="300" as="geometry" />
        </mxCell>
        <mxCell id="NQqwgZCC8j3keOBlK-B6-9" value="&lt;font style=&quot;font-size: 17px&quot;&gt;APP壳工程&lt;/font&gt;" style="rounded=0;whiteSpace=wrap;html=1;fillColor=#d5e8d4;strokeColor=#82b366;fontStyle=1" vertex="1" parent="1">
          <mxGeometry x="100" y="1410" width="970" height="60" as="geometry" />
        </mxCell>
        <mxCell id="NQqwgZCC8j3keOBlK-B6-10" value="顶层壳APP" style="text;html=1;align=center;verticalAlign=middle;resizable=0;points=[];autosize=1;fontStyle=1;fontSize=14;" vertex="1" parent="1">
          <mxGeometry x="-15" y="1430" width="90" height="20" as="geometry" />
        </mxCell>
        <mxCell id="NQqwgZCC8j3keOBlK-B6-11" value="" style="line;strokeWidth=1;fillColor=none;align=left;verticalAlign=middle;spacingTop=-1;spacingLeft=3;spacingRight=3;rotatable=0;labelPosition=right;points=[];portConstraint=eastwest;fontSize=14;dashed=1;" vertex="1" parent="1">
          <mxGeometry x="-10" y="1490" width="1110" height="8" as="geometry" />
        </mxCell>
        <mxCell id="NQqwgZCC8j3keOBlK-B6-12" value="&lt;b&gt;业务模块层(Module)&lt;/b&gt;" style="text;html=1;align=center;verticalAlign=middle;resizable=0;points=[];autosize=1;fontSize=14;" vertex="1" parent="1">
          <mxGeometry x="-50" y="1562" width="140" height="20" as="geometry" />
        </mxCell>
        <mxCell id="NQqwgZCC8j3keOBlK-B6-13" value="教师系统" style="rounded=0;whiteSpace=wrap;html=1;dashed=1;fontSize=14;fillColor=#ffe6cc;strokeColor=#d79b00;" vertex="1" parent="1">
          <mxGeometry x="532.5" y="1552" width="120" height="60" as="geometry" />
        </mxCell>
        <mxCell id="NQqwgZCC8j3keOBlK-B6-14" value="学生系统" style="rounded=0;whiteSpace=wrap;html=1;dashed=1;fontSize=14;fillColor=#ffe6cc;strokeColor=#d79b00;" vertex="1" parent="1">
          <mxGeometry x="750" y="1552" width="120" height="60" as="geometry" />
        </mxCell>
        <mxCell id="NQqwgZCC8j3keOBlK-B6-15" value="组织系统" style="rounded=0;whiteSpace=wrap;html=1;dashed=1;fontSize=14;fillColor=#ffe6cc;strokeColor=#d79b00;" vertex="1" parent="1">
          <mxGeometry x="110" y="1552" width="120" height="60" as="geometry" />
        </mxCell>
        <mxCell id="NQqwgZCC8j3keOBlK-B6-16" value="用户系统" style="rounded=0;whiteSpace=wrap;html=1;dashed=1;fontSize=14;fillColor=#ffe6cc;strokeColor=#d79b00;" vertex="1" parent="1">
          <mxGeometry x="320" y="1552" width="120" height="60" as="geometry" />
        </mxCell>
        <mxCell id="NQqwgZCC8j3keOBlK-B6-17" value="其他..." style="rounded=0;whiteSpace=wrap;html=1;dashed=1;fontSize=14;fillColor=#ffe6cc;strokeColor=#d79b00;" vertex="1" parent="1">
          <mxGeometry x="930" y="1552" width="120" height="60" as="geometry" />
        </mxCell>
        <mxCell id="NQqwgZCC8j3keOBlK-B6-18" value="教师选择器" style="rounded=0;whiteSpace=wrap;html=1;dashed=1;fontSize=14;fillColor=#ffe6cc;strokeColor=#d79b00;" vertex="1" parent="1">
          <mxGeometry x="100" y="1850" width="120" height="60" as="geometry" />
        </mxCell>
        <mxCell id="NQqwgZCC8j3keOBlK-B6-19" value="&lt;b&gt;业务组件层Lib&lt;/b&gt;" style="text;html=1;align=center;verticalAlign=middle;resizable=0;points=[];autosize=1;fontSize=14;" vertex="1" parent="1">
          <mxGeometry x="-50" y="1870" width="110" height="20" as="geometry" />
        </mxCell>
        <mxCell id="NQqwgZCC8j3keOBlK-B6-20" value="学生选择器" style="rounded=0;whiteSpace=wrap;html=1;dashed=1;fontSize=14;fillColor=#ffe6cc;strokeColor=#d79b00;" vertex="1" parent="1">
          <mxGeometry x="320" y="1850" width="120" height="60" as="geometry" />
        </mxCell>
        <mxCell id="NQqwgZCC8j3keOBlK-B6-21" value="家长选择器" style="rounded=0;whiteSpace=wrap;html=1;dashed=1;fontSize=14;fillColor=#ffe6cc;strokeColor=#d79b00;" vertex="1" parent="1">
          <mxGeometry x="545" y="1850" width="120" height="60" as="geometry" />
        </mxCell>
        <mxCell id="NQqwgZCC8j3keOBlK-B6-22" value="其他业务Lib" style="rounded=0;whiteSpace=wrap;html=1;dashed=1;fontSize=14;fillColor=#ffe6cc;strokeColor=#d79b00;" vertex="1" parent="1">
          <mxGeometry x="760" y="1850" width="120" height="60" as="geometry" />
        </mxCell>
        <mxCell id="NQqwgZCC8j3keOBlK-B6-23" value="&lt;b&gt;业务组件层Common&lt;/b&gt;" style="text;html=1;align=center;verticalAlign=middle;resizable=0;points=[];autosize=1;fontSize=14;" vertex="1" parent="1">
          <mxGeometry x="-55" y="1730" width="150" height="20" as="geometry" />
        </mxCell>
        <mxCell id="NQqwgZCC8j3keOBlK-B6-24" value="教师系统" style="rounded=0;whiteSpace=wrap;html=1;dashed=1;fontSize=14;fillColor=#dae8fc;strokeColor=#6c8ebf;" vertex="1" parent="1">
          <mxGeometry x="540" y="1720" width="120" height="60" as="geometry" />
        </mxCell>
        <mxCell id="NQqwgZCC8j3keOBlK-B6-25" value="学生系统" style="rounded=0;whiteSpace=wrap;html=1;dashed=1;fontSize=14;fillColor=#dae8fc;strokeColor=#6c8ebf;" vertex="1" parent="1">
          <mxGeometry x="760" y="1720" width="120" height="60" as="geometry" />
        </mxCell>
        <mxCell id="NQqwgZCC8j3keOBlK-B6-26" value="组织系统" style="rounded=0;whiteSpace=wrap;html=1;dashed=1;fontSize=14;fillColor=#dae8fc;strokeColor=#6c8ebf;" vertex="1" parent="1">
          <mxGeometry x="110" y="1720" width="120" height="60" as="geometry" />
        </mxCell>
        <mxCell id="NQqwgZCC8j3keOBlK-B6-27" value="用户系统" style="rounded=0;whiteSpace=wrap;html=1;dashed=1;fontSize=14;fillColor=#dae8fc;strokeColor=#6c8ebf;" vertex="1" parent="1">
          <mxGeometry x="320" y="1720" width="120" height="60" as="geometry" />
        </mxCell>
        <mxCell id="NQqwgZCC8j3keOBlK-B6-28" value="其他..." style="rounded=0;whiteSpace=wrap;html=1;dashed=1;fontSize=14;fillColor=#dae8fc;strokeColor=#6c8ebf;" vertex="1" parent="1">
          <mxGeometry x="940" y="1720" width="120" height="60" as="geometry" />
        </mxCell>
        <mxCell id="NQqwgZCC8j3keOBlK-B6-29" value="&lt;b&gt;基础组件&lt;/b&gt;" style="text;html=1;align=center;verticalAlign=middle;resizable=0;points=[];autosize=1;fontSize=14;" vertex="1" parent="1">
          <mxGeometry x="-40" y="2200" width="70" height="20" as="geometry" />
        </mxCell>
        <mxCell id="NQqwgZCC8j3keOBlK-B6-30" value="高地地图" style="rounded=0;whiteSpace=wrap;html=1;dashed=1;fontSize=14;fillColor=#f8cecc;strokeColor=#b85450;" vertex="1" parent="1">
          <mxGeometry x="170" y="2220" width="120" height="60" as="geometry" />
        </mxCell>
        <mxCell id="NQqwgZCC8j3keOBlK-B6-31" value="华为推送" style="rounded=0;whiteSpace=wrap;html=1;dashed=1;fontSize=14;fillColor=#f8cecc;strokeColor=#b85450;" vertex="1" parent="1">
          <mxGeometry x="320" y="2220" width="120" height="60" as="geometry" />
        </mxCell>
        <mxCell id="NQqwgZCC8j3keOBlK-B6-32" value="小米推送" style="rounded=0;whiteSpace=wrap;html=1;dashed=1;fontSize=14;fillColor=#f8cecc;strokeColor=#b85450;" vertex="1" parent="1">
          <mxGeometry x="470" y="2220" width="120" height="60" as="geometry" />
        </mxCell>
        <mxCell id="NQqwgZCC8j3keOBlK-B6-33" value="okhttp" style="rounded=0;whiteSpace=wrap;html=1;dashed=1;fontSize=14;fillColor=#f8cecc;strokeColor=#b85450;" vertex="1" parent="1">
          <mxGeometry x="320" y="2300" width="120" height="60" as="geometry" />
        </mxCell>
        <mxCell id="NQqwgZCC8j3keOBlK-B6-34" value="RxJava" style="rounded=0;whiteSpace=wrap;html=1;dashed=1;fontSize=14;fillColor=#f8cecc;strokeColor=#b85450;" vertex="1" parent="1">
          <mxGeometry x="470" y="2300" width="120" height="60" as="geometry" />
        </mxCell>
        <mxCell id="NQqwgZCC8j3keOBlK-B6-35" value="rxlifecycle" style="rounded=0;whiteSpace=wrap;html=1;dashed=1;fontSize=14;fillColor=#f8cecc;strokeColor=#b85450;" vertex="1" parent="1">
          <mxGeometry x="170" y="2300" width="120" height="60" as="geometry" />
        </mxCell>
        <mxCell id="NQqwgZCC8j3keOBlK-B6-36" value="Mob推送" style="rounded=0;whiteSpace=wrap;html=1;dashed=1;fontSize=14;fillColor=#f8cecc;strokeColor=#b85450;" vertex="1" parent="1">
          <mxGeometry x="620" y="2220" width="120" height="60" as="geometry" />
        </mxCell>
        <mxCell id="NQqwgZCC8j3keOBlK-B6-37" value="其他Library" style="rounded=0;whiteSpace=wrap;html=1;dashed=1;fontSize=14;fillColor=#f8cecc;strokeColor=#b85450;" vertex="1" parent="1">
          <mxGeometry x="470" y="2380" width="120" height="60" as="geometry" />
        </mxCell>
        <mxCell id="NQqwgZCC8j3keOBlK-B6-38" value="" style="line;strokeWidth=1;fillColor=none;align=left;verticalAlign=middle;spacingTop=-1;spacingLeft=3;spacingRight=3;rotatable=0;labelPosition=right;points=[];portConstraint=eastwest;fontSize=14;dashed=1;" vertex="1" parent="1">
          <mxGeometry x="-40" y="1940" width="1110" height="8" as="geometry" />
        </mxCell>
        <mxCell id="NQqwgZCC8j3keOBlK-B6-39" value="&lt;b&gt;基础层AppCommonSDk&lt;/b&gt;" style="text;html=1;align=center;verticalAlign=middle;resizable=0;points=[];autosize=1;fontSize=14;" vertex="1" parent="1">
          <mxGeometry x="442.5" y="2180" width="170" height="20" as="geometry" />
        </mxCell>
        <mxCell id="NQqwgZCC8j3keOBlK-B6-40" value="MVP Library" style="rounded=0;whiteSpace=wrap;html=1;dashed=1;fontSize=14;fillColor=#f8cecc;strokeColor=#b85450;" vertex="1" parent="1">
          <mxGeometry x="790" y="2220" width="120" height="60" as="geometry" />
        </mxCell>
        <mxCell id="NQqwgZCC8j3keOBlK-B6-41" value="基础组件服务类 AppCommonService" style="rounded=0;whiteSpace=wrap;html=1;dashed=1;fontSize=14;fillColor=#e1d5e7;strokeColor=#9673a6;" vertex="1" parent="1">
          <mxGeometry x="140" y="2020" width="250" height="120" as="geometry" />
        </mxCell>
        <mxCell id="NQqwgZCC8j3keOBlK-B6-42" value="基础资源类 AppCommRes" style="rounded=0;whiteSpace=wrap;html=1;dashed=1;fontSize=14;fillColor=#e1d5e7;strokeColor=#9673a6;" vertex="1" parent="1">
          <mxGeometry x="670" y="2020" width="290" height="120" as="geometry" />
        </mxCell>
        <mxCell id="NQqwgZCC8j3keOBlK-B6-43" value="Glide图片加载" style="rounded=0;whiteSpace=wrap;html=1;dashed=1;fontSize=14;fillColor=#f8cecc;strokeColor=#b85450;" vertex="1" parent="1">
          <mxGeometry x="620" y="2300" width="120" height="60" as="geometry" />
        </mxCell>
        <mxCell id="NQqwgZCC8j3keOBlK-B6-44" value="ARouter" style="rounded=0;whiteSpace=wrap;html=1;dashed=1;fontSize=14;fillColor=#f8cecc;strokeColor=#b85450;" vertex="1" parent="1">
          <mxGeometry x="790" y="2300" width="120" height="60" as="geometry" />
        </mxCell>
        <mxCell id="NQqwgZCC8j3keOBlK-B6-45" value="DBFlow数据库+缓存CURD" style="rounded=0;whiteSpace=wrap;html=1;dashed=1;fontSize=14;fillColor=#f8cecc;strokeColor=#b85450;" vertex="1" parent="1">
          <mxGeometry x="170" y="2380" width="120" height="60" as="geometry" />
        </mxCell>
        <mxCell id="NQqwgZCC8j3keOBlK-B6-46" value="相册视频框架" style="rounded=0;whiteSpace=wrap;html=1;dashed=1;fontSize=14;fillColor=#f8cecc;strokeColor=#b85450;" vertex="1" parent="1">
          <mxGeometry x="320" y="2380" width="120" height="60" as="geometry" />
        </mxCell>
      </root>
    </mxGraphModel>
  </diagram>
</mxfile>
